<svg width="120" height="120" viewBox="0 0 120 120" fill="none" xmlns="http://www.w3.org/2000/svg">
<path d="M50 60C61.05 60 70 51.05 70 40C70 28.95 61.05 20 50 20C38.95 20 30 28.95 30 40C30 51.05 38.95 60 50 60ZM50 30C52.6522 30 55.1957 31.0536 57.0711 32.9289C58.9464 34.8043 60 37.3478 60 40C60 42.6522 58.9464 45.1957 57.0711 47.0711C55.1957 48.9464 52.6522 50 50 50C44.45 50 40 45.55 40 40C40 34.45 44.5 30 50 30ZM60 100H10V85C10 71.65 36.65 65 50 65C54.55 65 60.65 65.8 66.75 67.35C66.3 69 66 70.75 66 72.5V76.95C61.1 75.5 55.5 74.5 50 74.5C35.15 74.5 19.5 81.8 19.5 85V90.5H60V100ZM104 85H82.5V72.5C82.5 68.5 86 66 90 66C94 66 97.5 68.5 97.5 72.5V75H104V72.5C104 65.5 97 60 90 60C83 60 76 65.5 76 72.5V85C73 85 70 88 70 91V108.5C70 112 73 115 76 115H103.5C107 115 110 112 110 109V91.5C110 88 107 85 104 85Z" fill="#1F9DA5" fill-opacity="0.45"/>
</svg>
