<svg width="32" height="32" viewBox="0 0 32 32" fill="none" xmlns="http://www.w3.org/2000/svg">
<path d="M11 24H21V26H11V24Z" fill="#C4C4C4"/>
<path d="M13 28H19V30H13V28Z" fill="#C4C4C4"/>
<path d="M10.815 18.14C9.87846 17.4257 9.13189 16.4921 8.64101 15.4214C8.15013 14.3507 7.93 13.1758 8 12C8.00265 9.87908 8.84635 7.84579 10.3461 6.34607C11.8458 4.84635 13.8791 4.00265 16 4V2C13.3487 2.00291 10.8069 3.05742 8.93215 4.93215C7.05742 6.80688 6.00291 9.34873 6 12C5.9322 13.4528 6.21055 14.9009 6.81211 16.225C7.41366 17.5491 8.32122 18.7114 9.46 19.616C10.472 20.551 11 21.081 11 22H13C13 20.16 11.89 19.134 10.815 18.14Z" fill="#C4C4C4"/>
<path d="M21 9.59L17.41 6L16 7.41L21 12.41L30 3.41L28.59 2L21 9.59Z" fill="#C4C4C4"/>
<path d="M23.8 14C23.4313 15.6426 22.5047 17.1067 21.178 18.143C20.107 19.135 19 20.16 19 22H21C21 21.08 21.526 20.55 22.535 19.614C24.2886 18.2119 25.465 16.2137 25.84 14H23.8Z" fill="#C4C4C4"/>
</svg>
