<svg width="32" height="32" viewBox="0 0 32 32" fill="none" xmlns="http://www.w3.org/2000/svg">
<path d="M16 2.66669C10.4 2.66669 5.33337 6.96002 5.33337 13.6C5.33337 18.0267 8.89337 23.2667 16 29.3334C23.1067 23.2667 26.6667 18.0267 26.6667 13.6C26.6667 6.96002 21.6 2.66669 16 2.66669ZM16 25.7734C10.6 20.84 8.00004 16.72 8.00004 13.5867C8.00004 8.76002 11.5334 5.33335 16 5.33335C20.4667 5.33335 24 8.76002 24 13.6C24 16.72 21.4 20.8534 16 25.7734Z" fill="black"/>
<path d="M14.6666 8H17.3333V14.6667H14.6666V8ZM14.6666 17.3333H17.3333V20H14.6666V17.3333Z" fill="black"/>
</svg>
