<?xml version="1.0" encoding="UTF-8"?>
<svg enable-background="new 0 0 512 512" id="Layer_1" version="1.1" viewBox="0 0 512 512" xml:space="preserve" xmlns="http://www.w3.org/2000/svg" xmlns:xlink="http://www.w3.org/1999/xlink"><g><g><linearGradient gradientUnits="userSpaceOnUse" id="SVGID_1_" x1="-0.0000027" x2="512" y1="256" y2="256"><stop offset="0" style="stop-color:#E24263"/><stop offset="1" style="stop-color:#DD1E47"/></linearGradient><circle cx="256" cy="256" fill="url(#SVGID_1_)" r="256"/><linearGradient gradientUnits="userSpaceOnUse" id="SVGID_2_" x1="42.6666641" x2="469.3333435" y1="256.0005188" y2="256.0005188"><stop offset="0" style="stop-color:#DD1E47"/><stop offset="1" style="stop-color:#E24263"/></linearGradient><path d="M256,469.3338623c-117.6309967,0-213.3333435-95.7023926-213.3333435-213.3333435    c0-117.6314545,95.7023392-213.333313,213.3333435-213.333313c117.6362,0,213.3333435,95.7018661,213.3333435,213.333313    C469.3333435,373.6314697,373.6362,469.3338623,256,469.3338623z" fill="url(#SVGID_2_)"/></g><g><path d="M263.9988708,271.4234619c-6.2015381,0-11.2501373,5.0464172-11.2501373,11.2496033    c0,6.2042542,5.0485992,11.2501221,11.2501373,11.2501221c6.2010803,0,11.2496033-5.0458679,11.2496033-11.2501221    C275.2484741,276.4698792,270.1999512,271.4234619,263.9988708,271.4234619z" opacity="0.3"/><path d="M335.8703308,211.2698669l3.3034668,3.3029327l25.2928162-25.2928009l-7.0704041-7.06987    l-25.2922668,25.2928009l3.3002625,3.3002625c-18.3151855-18.1967926-43.5349426-29.4517212-71.3925476-29.4549255h4.9872131    v-27.3488007h25.4048157V144h-60.8053436v9.9994659h25.400528v27.3488007h4.9888    c-55.9556732,0.0069275-101.3141327,45.3679962-101.3141327,101.3247986C162.6735382,338.6346741,208.0388794,384,264,384    c55.9609985,0,101.3263245-45.3653259,101.3263245-101.3269348    C365.3263245,254.8117371,354.0697937,229.5866699,335.8703308,211.2698669z M263.9988708,303.9231873    c-11.7189331,0-21.2501373-9.5333252-21.2501373-21.2501221c0-4.0447998,1.1973419-7.7914734,3.1674652-11.013855    l-36.8053284-36.8053436l7.0704651-7.0704041l36.8058014,36.8058624c3.2218781-1.9690552,6.9664154-3.165863,11.011734-3.165863    c11.7184753,0,21.2496033,9.5338745,21.2496033,21.2496033    C285.2484741,294.3898621,275.7173462,303.9231873,263.9988708,303.9231873z" opacity="0.3"/></g><g><path d="M255.9988708,263.4234619c-6.2015381,0-11.2501373,5.0464172-11.2501373,11.2496033    c0,6.2042542,5.0485992,11.2501221,11.2501373,11.2501221c6.2010803,0,11.2496033-5.0458679,11.2496033-11.2501221    C267.2484741,268.4698792,262.1999512,263.4234619,255.9988708,263.4234619z" fill="#FFFFFF"/><path d="M327.8703308,203.2698669l3.3034668,3.3029327l25.2928162-25.2928009l-7.0704041-7.06987    l-25.2922668,25.2928009l3.3002625,3.3002625c-18.3151855-18.1967926-43.5349426-29.4517212-71.3925476-29.4549255h4.9872131    v-27.3488007h25.4048157V136h-60.8053436v9.9994659h25.400528v27.3488007h4.9888    c-55.9556732,0.0069275-101.3141327,45.3679962-101.3141327,101.3247986C154.6735382,330.6346741,200.0388794,376,256,376    c55.9609985,0,101.3263245-45.3653259,101.3263245-101.3269348    C357.3263245,246.8117371,346.0697937,221.5866699,327.8703308,203.2698669z M255.9988708,295.9231873    c-11.7189331,0-21.2501373-9.5333252-21.2501373-21.2501221c0-4.0447998,1.1973419-7.7914734,3.1674652-11.013855    l-36.8053284-36.8053436l7.0704651-7.0704041l36.8058014,36.8058624c3.2218628-1.9690552,6.9664001-3.165863,11.011734-3.165863    c11.7184753,0,21.2496033,9.5338745,21.2496033,21.2496033    C277.2484741,286.3898621,267.7173462,295.9231873,255.9988708,295.9231873z" fill="#FFFFFF"/></g></g></svg>