<svg id="Layer_1" data-name="Layer 1" xmlns="http://www.w3.org/2000/svg" viewBox="0 0 512 512"><defs><style>.cls-1{fill:#707070;}</style></defs><title>wall-clock-handdrawn</title><path class="cls-1" d="M494.58,205.84c-11.9-55.29-43.7-104-86.91-138l2.91,2c-6.67-4.86-12.92-10.21-20-14.68C343.53,23.87,285,11.35,229,17.78c-7.36,1.23-15.13,2.06-22.06,3.61l-17.52,4.42c-4.72,1-8,2.73-10.55,3.51-5,1.85-6.13,2.36-4.56,2,3-.58-3.37,1.45-12.64,5.57l-15.4,7.52c-5.49,2.65-10.6,6.29-15.45,9.1a243,243,0,0,0-66.38,62,236.33,236.33,0,0,0-39.17,85c-5.51,24.45-8.13,50.56-5.54,76.13A247.86,247.86,0,0,0,38.07,349c4.31,8.2,8.82,19.51,14.94,28.48,11.12,19.19,25.27,35.93,41.07,51l12.24,11,13.35,9.93c4.34,3.53,9.3,6.2,14.13,9.15s9.6,6.13,14.94,8.36c5.42,2.48,18.18,9.14,21.53,10,6,2.44,7.24,3.17,10.9,4.81,2.09.72,4.21,1.67,6.55,2.29l7.35,1.9c5.14,1.23,10.63,3,16.76,4.13-2.82-.22-5-1-9.9-2,25.27,5.65,47.52,7.5,69.11,6,21.51-.76,42.46-4.82,65-12.1l3.67-1.74,10.53-3.81c3.57-1.34,7-3.26,10.84-5l12.06-5.78,13.28-8-9.8,6.06c.75-.06,5.88-2.8.49.7-2,1.57-7.58,4.33-14.19,7.49l-10.35,5L342,480.9c-14.08,5.55-20.57,6.36-24.67,7.89a113,113,0,0,1-13.92,3.46c-6.88,1.09-14.92,2.51-21.16,3.39-30.91,2-20.76,2.05-22.69,2.68-.68.22,1,.33,1.85.55l7.92-.32,7.74-.32a72.14,72.14,0,0,0,10.26-.83,86.64,86.64,0,0,1-11.67,1.09l-10.56.62c-6.83.69-13.39.07-20.71-.18l2.52-.21c-6.62-.27-16.61-.84-19.21-1.51L212,495.14c-5.28-.56-10.31-2.24-15.32-3.27-4.95-1.28-9.89-2-14.28-3.62l-12.26-4.12c-9.94-3.31-4.29-.91,8.08,3.86s32.2,9.67,49.86,11.86c5.53,1.11,11.2.93,16.83,1.35,5.64.13,11.29.94,17,.49,11.32-.58,22.73-.76,34-2.94,11.37-1.24,22.34-4.46,33.4-7.26,5.52-1.44,10.76-3.75,16.15-5.58l8-2.92c2.67-1,5.16-2.39,7.75-3.56l12.67-6.06c4.27-2,8.12-4.71,12.24-7.06,4-2.51,8.26-4.76,12.2-7.53L410,450.14a249,249,0,0,1-80.6,41.67l.11.13c4.91-1.25,9.58-3.29,14.38-4.91,4.71-1.86,9.67-3.12,14.14-5.48,18.23-8.14,30.82-16,41.35-22.54,4.63-3.33,10.87-7.62,18.2-13.37L429,435.4a127,127,0,0,0,12.58-12.77l8.14-8.95c2.62-3.24,5.11-6.74,7.73-10.2s5.35-6.93,7.77-10.59l6.83-11.17c4.8-7.2,8.22-14.83,11.59-21.61,1.61-3.42,3.44-6.54,4.62-9.66l3.35-8.52c3.08-7.69,1-1.06,1.29-1,2.21-6,4.58-11.9,6-18.27s3.58-12.69,4.77-19.58L507,281.2l1.29-25.28c0,7.41,0,14.34,0,21.19a68.72,68.72,0,0,1-.59,10.28l-1.05,10.46c-.11.38,1.54-8.85,2.7-17.32l-3.77,26.57c-1.27,5.44-1.88,8.38-2.41,11-1.2,5.27-1.15,9.69-8.79,29.84,2.82-7.89,5.79-14.3,7.42-20.72l5.11-19.1c-3.08,13.38-7.12,29.2-4.57,21.63,2.53-5.79-5.64,19.08-8.71,27.23-1.36,3.23,1.94-3.1,1.29-1.29a127.23,127.23,0,0,1-5.84,13.59c-4.55,10.38-9.35,17.22-14.28,25.87-2.37,4.4-5.82,8.56-9.6,13.7a147,147,0,0,1-14.52,17.39c-2.17,2.19-7.84,8.77-11.53,12.25-20.69,20.64-44.78,36.77-70.54,48.93a258,258,0,0,1-82.58,23.08c-36.68,4.21-79.64-.77-116.71-14.47-11.17-3.56-21.51-9-32-13.94-5.2-2.59-10-5.85-15.06-8.75l-7.46-4.49c-2.45-1.55-4.7-3.39-7.06-5.07l-14-10.37-13-11.62A126.83,126.83,0,0,1,68.58,429.5c-3.83-4.36-8.08-8.39-11.56-13.06-17.16-20.75-30.34-44.65-40.09-69.71l-3.49-9.49a66.23,66.23,0,0,1-3-9.63L5.34,308C3.25,294.74.72,281.46.57,268c-.09-5.17-.92-10.77-.41-16.12L.84,237.2A254.8,254.8,0,0,1,20.35,155.3C31.7,128.93,47.77,106.54,61.2,90.76c6.06-6.25,14-15.81,24.28-24.37l7.58-6.78c2.57-2.26,5.47-4.16,8.19-6.24,5.6-3.94,10.76-8.38,16.3-11.52L115.28,43c7.22-4.51,10.69-7.55,22.48-14C161.32,16.1,188.9,7.35,216.34,3.17c19.38-3.74,51.89-4.73,81.75.14l-8.28-.4c42.21,6.16,53.51,13.41,55,13.74,1.38.86-7.62-2-9.37-2.2a248,248,0,0,1,80,41.89,127.06,127.06,0,0,1,13,10.92c4.14,3.91,8.68,7.46,12.51,11.71l11.56,12.64c4,4.06,7,8.93,10.51,13.33,7.12,8.75,12.45,18.48,18,27.59,2.82,4.55,4.72,9.49,7,14.07,2.08,4.7,4.61,9.08,6.13,13.74l7,19.18c2.35,8,4.47,16.79,6.23,23.57,1.41,6.88,2.07,13.31,3,19.49.36,3.11,1,6.14,1.13,9.25l.38,9.38-.79-10.74-2-11.56c2.33,13.18,1.74,23.36,1.94,27,0,3.66-.43.88-1.36-11.46-.43-5.65-.33.79-.58-.41-.2-.79-.29-2.08-.67-4.35l-1.92-10.28-1.43-8.32-.86-5.12-1.51-5.72c-2.27-8.07-4.37-18.3-9.32-30.32l-3.62-9.6c-1.27-3.19-3-6.16-4.43-9.14-3.08-5.85-5.65-11.49-8.4-15.72-5.56-8.43-8.78-12.89-6.54-8.72,3.12,6.14-.18.51-8.65-11.47l-7.66-9.87-4.43-5.74-5.32-5.78c-3.72-3.94-7.54-8.28-11.78-12.59L418.62,68.64a248.31,248.31,0,0,0-75.12-43.4c-5.94-2.09-12.2-4.44-16.2-5.07l-17.14-4c-7.6-1.5-16.87-2.49-26.56-4l-15-.67c-5-.13-10.07-.72-15-.23L239.4,12l-6.6.35-6.07.9-16.8,2.41c-20.32,4.56-20.39,3.59-48.67,14.84,7.62-2.7,15.36-5.13,22.72-7.6,7.54-1.9,14.85-3.38,21.42-4.86,5-1.13,4-.47,5.67-.6-4.83.77-9.5,2.3-14.26,3.41-4.7,1.33-9.57,2.16-14.14,3.9l-13.77,5c-2.28.87-4.62,1.58-6.84,2.57l-6.58,3.14c-6,3-12.19,5.23-17.45,8.59-8.61,5.27-17.49,10.14-25.36,16.51-4,3.08-8.23,5.86-12,9.2L89.43,79.91a108,108,0,0,0-10.6,10.75c-3.37,3.74-6.85,7.39-10.13,11.2l-9.07,12.07-4.53,6-3.93,6.43c-21.45,34-34.84,73.15-36.95,113.27l-.43,9.76a6.17,6.17,0,0,0,.16-1,239.29,239.29,0,0,1,21.72-92.79A243.32,243.32,0,0,1,91.87,78.42l11-9.88,11.89-8.85,6-4.43c2-1.44,4.21-2.61,6.3-3.93l12.72-7.69C148.35,39,155.76,35.84,161.58,33c6-2.47,10.72-3.91,14-5.11,6.7-2.28,8.21-2.57,6-1.33,5-2.12,10.12-3,14.82-4.34,4.75-1.2,9.25-2.54,13.69-3.48,9-1.29,17.39-3,26-3.82l17.79-1a56,56,0,0,1,9.09,0l9.15.44c28.15,1.68,54.63,7.37,78.58,17.16a262.53,262.53,0,0,1,64.88,38.36l10.08,9,5.46,4.9,5.15,5.56,10.48,11.43c3.22,4,6.24,8.21,9.27,12.16a241.93,241.93,0,0,1,39.59,83.27,208.91,208.91,0,0,1,7.17,50.1c.35,9.61.21,12-.39,7.38-.88-6.73-1.61-10.32-2.52-15.94C497.86,214.66,493.74,200,494.58,205.84ZM325.2,499.12l8.66-2L343,494l14.64-5.35,14.23-6.8,7.14-3.43c2.32-1.26,4.54-2.7,6.81-4l13.51-8.18c10.1-7.4,20.39-14.36,29.36-23.08l8.34-7.48c2.75-2.54,5.16-5.43,7.75-8.13l1.77-2.25c-30.53,34-71,58.57-114.72,72ZM18.08,302.43c.53,4.34,2.23,9.75,3.75,16.17.84,3.19,1.62,6.65,2.68,10.23l4.07,11c1.47,3.81,2.78,7.86,4.54,11.85l5.9,12c3.66,8.35,9.11,16.06,14,24-3.67-6.06-7.22-11.57-10.33-17l-8-16.43-.34-.81,4.45,9a127.11,127.11,0,0,0,8.83,16.1c-5.27-8-7.95-15.11-10.67-20.41a101.85,101.85,0,0,1-5.51-12.51l-4.17-11A80.56,80.56,0,0,1,23.65,324C21.81,316.75,19.55,309.77,18.08,302.43Z"/><path class="cls-1" d="M110.19,430.42l-12-11.27c-3.57-3.15-6-6.63-8.75-9.6A227.29,227.29,0,0,1,42.5,334.41l-4.17-10.85c-2.56-9.29-2.1-2.19,3.36,12.46,1.41,3.63,2.41,8,4.65,12.35L53,362.56c2.28,5.08,5.74,9.86,8.72,15.08,1.6,2.55,3,5.24,4.81,7.75l5.59,7.41c32.69,43.85,81.75,76.39,135.32,87.74a47.26,47.26,0,0,0,7.93,1.62l7.07,1.06,11.46,1.7c6.56.36,10.9.4,13.39.39,11.59.35,22.19-1.72,30.72-2.71,1.41-.19-6.94,0-14.13.28-36,1.24-77.71-8.17-112.43-26.14-6.67-3.43-11.52-6.79-15.34-8.91s-6.28-3.59-7.41-4.52c-2.32-1.79-.61.34,5.56,4.08,3.64,2.33.5.67.45.84-4.59-2.47-9.4-6.27-13.87-9.57S112.24,432.57,110.19,430.42Z"/><path class="cls-1" d="M166.76,38.2a266.45,266.45,0,0,0-61.06,37c-25.38,21.42-39,39.4-52.51,62.47-1.28,2.16-2.65,4.28-3.87,6.48L46,151,39.46,164.8l-5.29,14.56c-.86,2.45-1.87,4.87-2.6,7.38l-1.94,7.64c-6.06,20.25-7.86,42.13-8.06,64.63L23,274.28c.22,2,.28-.36.18-4.56-.09-3.25-.21-7.19-.33-11.31s.46-8.43.64-12.42c.65-8,.89-14.72,1.56-16.15.42-1.5,1.06-4.8,1.83-9.25l1.25-7.48.7-4.25L30,204.42c1.67-6,3.15-12.67,5.15-19.09l6.74-18.15c4.16-9.23,7.84-16.3,10.53-22.15,3.31-5.52,5.76-9.76,7.7-13.26l3.5-6.21,5-7c3.69-5,7.44-11,12.71-16.51,2.11-2.26,6.69-7.75,11.74-12.74l12.73-11.46c30.31-25.29,67.26-42,98.52-49.16L193.7,30.8a68.35,68.35,0,0,0-9.5,2.28Z"/><path class="cls-1" d="M471.41,345c2.58-7.38,6.7-17.63,8.16-23.45,4.43-18.15,5.16-23.26,3.54-18.22-.87,2.51-2.39,7.53-4.42,14.72L477,323.81l-2.49,6.36L468.82,345a238.38,238.38,0,0,1-41.41,63.07A233.21,233.21,0,0,1,367,455.47l-18.49,8.82c-6.36,2.63-13,4.78-19.39,7.21a34.44,34.44,0,0,1-4.29,1.61c20.57-6.42,40.72-14.76,59-26.46,4.75-2.63,8.87-6.19,13.35-9.24l6.61-4.74c2.15-1.65,4.1-3.54,6.16-5.3,4-3.62,8.27-7,12.15-10.82l11.16-11.84a50.06,50.06,0,0,0,5-6.19,49.17,49.17,0,0,1-4.76,6.41A243.55,243.55,0,0,0,471.41,345Z"/><path class="cls-1" d="M446.94,215.93c-9.51-44.15-34.92-83-69.43-110.16l2.33,1.61c-5.32-3.89-10.29-8.18-15.93-11.75-37.59-25-84.35-35-129.08-29.87-5.88,1-12.08,1.65-17.61,2.88-11.28,2.78-18.53,4.58-22.42,6.33-4,1.48-4.89,1.91-3.62,1.64,2.38-.4-2.66,1.25-10,4.56l-12.27,6c-4.38,2.12-8.44,5-12.31,7.28A194.15,194.15,0,0,0,103.71,144a188.37,188.37,0,0,0-31.15,67.74c-4.37,19.48-6.45,40.29-4.37,60.66a196.7,196.7,0,0,0,14.71,57.66c3.45,6.53,7,15.53,11.91,22.68,8.86,15.28,20.11,28.62,32.68,40.66,12.41,12.32,27.35,22.1,43.54,30.66,4.32,2,14.47,7.3,17.13,8,4.78,2,5.74,2.62,8.63,4a77.47,77.47,0,0,0,11.08,3.36c4.1,1,8.48,2.39,13.36,3.3-2.25-.16-4-.78-7.91-1.58,20.16,4.49,37.91,5.94,55.13,4.75,17.16-.6,33.87-3.81,51.83-9.6l2.9-1.46,8.39-3c2.85-1.07,5.61-2.6,8.64-4l9.62-4.61,10.59-6.37-7.8,4.86c.63,0,4.75-2.12.47.71-1.61,1.27-6,3.48-11.31,6l-8.26,4-8.46,3.13c-11.24,4.44-16.43,5.08-19.69,6.36a85.53,85.53,0,0,1-11.11,2.82l-16.9,2.76c-24.7,1.67-16.6,1.84-18.14,2.45-.55.22.81.34,1.48.57,1.55-.2,8.45,0,20.78-1.13-13.34,1.33-22.69,2.08-34.42,1.3l2-.24c-5.3-.22-13.31-.68-15.4-1.21l-12.55-1.61c-4.23-.44-8.27-1.76-12.3-2.56-4-1-7.94-1.6-11.47-2.85L187.55,439c-8-2.6-3.49-.62,6.43,3.26s25.84,7.86,40,9.62c4.44.89,9,.75,13.52,1.09,4.53.1,9.07.76,13.62.4,9.1-.47,18.26-.61,27.28-2.36,9.13-1,18-3.58,26.84-5.83,4.43-1.16,8.65-3,13-4.48a93.87,93.87,0,0,0,12.67-5.21l10.18-4.86c3.43-1.58,6.53-3.79,9.84-5.67s6.64-3.82,9.8-6l9.48-7a200.12,200.12,0,0,1-64.75,33.53l.09.13c3.95-1,7.7-2.64,11.56-3.93,3.79-1.49,7.77-2.51,11.37-4.4a264.58,264.58,0,0,0,33.28-18.06c3.74-2.66,8.76-6.09,14.67-10.71,5.46-5.13,12.62-10.6,19.28-18.5l6.54-7.2c2.1-2.61,4.1-5.43,6.22-8.21s4.29-5.58,6.24-8.52l5.49-9c3.86-5.79,6.62-11.93,9.34-17.38a130.33,130.33,0,0,0,6.47-14.6c2.52-6.17.93-.82,1.2-.71,6.81-19.27,12.19-39.18,12.38-68.49.09,6,.17,11.56.25,17.08s-.76,11-1.12,16.75c-.09.3,1.26-7.14,2.21-14l-3,21.45c-1,4.4-1.46,6.78-1.86,8.94-.91,4.27-.81,7.86-7,24.16,2.29-6.38,4.7-11.55,6-16.74l4.16-15.43c-2.43,10.83-5.67,23.64-3.52,17.54,2.12-4.67-4.41,15.5-6.82,22.14-1.07,2.63,1.65-2.49,1.15-1a83.56,83.56,0,0,1-4.62,11.08c-3.69,8.42-7.54,14-11.52,21-1.91,3.57-4.7,7-7.77,11.13a117.17,117.17,0,0,1-11.81,14.09c-1.77,1.77-6.37,7.11-9.36,9.94-33.81,33.22-77.32,53.31-124.23,58.4-29.76,3.38-64.59-.65-94.67-11.76-9.06-2.89-17.45-7.27-26-11.3-4.22-2.1-8.14-4.74-12.22-7.09a99.42,99.42,0,0,1-11.79-7.75l-11.34-8.4-10.52-9.42a103.52,103.52,0,0,1-10-10c-3.11-3.53-6.56-6.81-9.38-10.59C81,369.32,70.35,349.93,62.43,329.59c-1.74-5.18-4.11-10.16-5.3-15.51L53,298.2c-1.7-10.79-3.74-21.56-3.86-32.49-.79-8.39-.09-18.16.2-25a205.23,205.23,0,0,1,15.79-66.47c9.22-21.4,22.29-39.56,33.23-52.31,4.93-5.06,11.36-12.79,19.72-19.74l6.15-5.49c2.09-1.83,4.44-3.37,6.64-5.06,4.55-3.19,8.74-6.78,13.23-9.33l-1.87.9c5.83-3.7,8.61-6.23,18.17-11.52,19.1-10.45,41.5-17.56,63.78-20.89,15.74-3,42.09-3.79,66.31.19l-6.73-.16c34.21,5,43.35,10.93,44.5,11.25,1.1.75-6.22-1.46-7.65-1.57A200.36,200.36,0,0,1,385.4,94.41c29.13,22.11,52.42,54.65,63.7,84.2l5.68,15.52c1.9,6.48,3.62,13.58,5,19.06,1.14,5.57,1.66,10.77,2.42,15.77A103.79,103.79,0,0,1,463.43,244l-.68-8.68L461.1,226a121,121,0,0,1,1.45,21.82c-.08,3-.44.71-1.25-9.25-.37-4.55-.34.64-.58-.32-.22-1.28-.75-4.12-2.23-11.78a199.8,199.8,0,0,0-10.66-39.86l-2.93-7.73c-1-2.56-2.43-5-3.6-7.35-2.51-4.71-4.6-9.23-6.85-12.62-4.54-6.76-7.2-10.3-5.44-6.92,4.62,10.31-9.72-19.14-41.94-46.55a199.21,199.21,0,0,0-60.35-34.87c-4.77-1.68-9.82-3.53-13-4l-13.78-3.18c-6.1-1.19-13.55-2-21.33-3.14-7.87-.2-16.16-1-24-.69l-11.43.6-5.3.28-4.88.72-13.49,1.91C203.11,66.65,203,65.87,180.37,75c6.13-2.13,12.36-4,18.28-6,6.06-1.48,11.93-2.62,17.21-3.77,4-.87,3.18-.3,4.57-.36-3.87.62-7.61,1.84-11.42,2.73-3.77,1.07-7.66,1.73-11.32,3.13-7.29,2.85-14.9,4.9-21.79,8.58-4.79,2.43-9.78,4.16-14,6.85-56.67,31.49-95.76,92.27-99.14,156.71l-.33,7.82a4,4,0,0,0,.15-.77C63.84,198.66,87,148.51,125,113.8l8.79-7.91,9.52-7.09c6.15-5,13.3-8.6,20-12.86,6.91-3.69,12.85-6.25,17.51-8.53,4.8-2,8.59-3.11,11.25-4.06,5.37-1.8,6.6-2,4.82-.92,4-1.71,8.09-2.38,11.85-3.49s7.4-2,11-2.81c7.19-1,13.91-2.46,20.81-3.09l14.24-.81c4.82-.47,9.71.24,14.6.33,22.53,1.34,43.73,5.88,62.92,13.69a210.74,210.74,0,0,1,52,30.63l8.09,7.2,4.37,3.92,4.13,4.45,8.4,9.15,7.43,9.74A194,194,0,0,1,448.45,208a164.88,164.88,0,0,1,5.73,40.15c.25,7.71.09,9.61-.47,5.92-.81-5.39-1.51-8.25-2.36-12.74C449.73,222.94,446.38,211.24,446.94,215.93ZM312.35,452.51l7-1.56,7.38-2.51,11.84-4.33,11.51-5.5,5.77-2.78c1.87-1,3.67-2.18,5.51-3.27L372.28,426c8.17-6,16.48-11.63,23.73-18.67l6.74-6c2.23-2.05,4.18-4.38,6.27-6.56l1.4-1.85C385.74,420.29,353,440.14,317.67,451ZM65.88,293.17c.41,3.48,1.76,7.82,3,13,.67,2.56,1.29,5.33,2.14,8.2l3.26,8.84c1.18,3.05,2.23,6.3,3.64,9.49l4.74,9.62C85.58,349,90,355.12,93.86,361.49c-2.94-4.85-5.78-9.27-8.27-13.62l-6.41-13.15-.26-.65,3.57,7.23a101.85,101.85,0,0,0,7.09,12.88c-4.21-6.42-6.35-12.1-8.52-16.35a83.17,83.17,0,0,1-4.4-10c-2.15-6.1-4.79-11.64-6.28-17.41S67.08,299,65.88,293.17Z"/><path class="cls-1" d="M141.55,393.44c-7.36-6.88-12.28-11.48-16.27-16.54a179.1,179.1,0,0,1-37.1-59.13l-3.33-8.54c-2.09-7.3-1.82-1.68,2.43,9.91,3.62,11.77,12.11,29.22,23.95,44.9,25.83,34.63,64.56,60.36,106.88,69.35,8.82,2,15.81,2.57,20.91,3.46,5.19.27,8.61.28,10.58.24,9.16.12,17.52-1.68,24.23-2.61,1.11-.18-5.47-.07-11.14.13-28.37.87-61.16-6.47-88.49-20.61-20.48-11.75-22.82-13.89-13.6-7.25,2.85,1.86.36.59.3.74-3.62-1.94-7.41-4.94-10.93-7.54S143.15,395.14,141.55,393.44Z"/><path class="cls-1" d="M185.5,82.84A213,213,0,0,0,137,112.24c-20.2,17-31,31.34-41.7,49.69-1,1.72-2.1,3.4-3.07,5.16l-2.59,5.45-5.21,11L80.19,195.1C79.52,197,78.72,199,78.13,201L76.6,207c-4.8,16.09-6.2,33.48-6.35,51.35l1.28,12.11c.2,1.55.28-.29.23-3.63l-.21-9c-.16-3.27.41-6.69.56-9.85.55-6.32.77-11.66,1.34-12.79.37-1.19.9-3.79,1.53-7.32s1-8.05,2.51-12.79c1.33-4.77,2.5-10,4.08-15.12l5.35-14.36c3.31-7.3,6.22-12.91,8.33-17.54,2.61-4.37,4.53-7.75,6-10.54l2.72-4.95,3.92-5.61c2.9-4,5.85-8.78,10-13.15,1.67-1.8,5.29-6.16,9.29-10.12l10.1-9.09c24.1-20,53.35-33.3,78.15-39-5.77,1.22-11.47,1.85-16,3.3Z"/><path class="cls-1" d="M426.5,326.22c2-5.82,5.28-13.92,6.4-18.52,3.43-14.35,3.92-18.38,2.56-14.43-.73,2-2,5.92-3.6,11.57l-1.32,4.55-2,5L424,326c-15.73,35.39-44.68,67.86-80.2,86.91l-14.55,6.94c-5,2.07-10.2,3.76-15.25,5.67a26.79,26.79,0,0,1-3.36,1.31c16.21-5,32.1-11.49,46.55-20.65,14.24-9.32,27.85-20,39.11-32.91a39,39,0,0,0,4-4.89,38.48,38.48,0,0,1-3.68,5.12A192.14,192.14,0,0,0,426.5,326.22Z"/><path class="cls-1" d="M244,184.5l.2-.17c-.12,1.71-.13,3.88-.37,5.05a37.81,37.81,0,0,0-.3,10.88,18.36,18.36,0,0,1,.07,2.09c0,3.64-.06,7.28,0,10.91,0,3.14.23,6.24.26,9.38,0,.83,0,1.68,0,2.53a35.17,35.17,0,0,1,10.78-2.43c.24-.7.52-1,.78-.34,0,.08.06.21.09.3.7,0,1.39-.1,2.11-.1q2.12,0,4.1.2a1.65,1.65,0,0,0,.47-.57,5.61,5.61,0,0,0,.26-1.72c-.22-3.34.18-6.42.16-9.65,0-.79,0-1.67,0-2.35-.34-3.5-.31-7.39-.52-11.05-.26-4.58-.48-9.19-.92-13.46-.17-1.62-.24-3.95-.89-3.52-.35.23-.37-.36-.27-2.45,0-.51,0-1.07,0-1.6,0-4,0-8.09,0-12.14a16.49,16.49,0,0,1,.19-1.78l.1.26c-.07-4-.15-7.92-.22-12-.54.42-.82-.67-.87-2.33a13.36,13.36,0,0,1-1.71-1.15c-.74-.66-1,.68-.86,4.14.1,2.17.13,4.4.19,6.6,0,1.41,0,3,.13,4.2.4,3.52.72,7.09.79,11.1,0,.87.09,1.73.16,2.56.1,1.23.22,2.43.37,4-.79-.36-1,.44-1,3.22,0,1.41.08,2.81.07,4.21,0,4.57-.1,9.13-.15,13.69,0,0-.07,0-.11.07,0-.23-.06-.46-.07-.7q-.14-8.58-.26-17.16c0-.44.15-.9.16-1.38,0-1.38,0-2.77,0-4.15-.2.12-.42,0-.6.4-.47,1-.92,2.1-1.41,3.23-.44-2.14-.43-2.11.07-3.58a6.12,6.12,0,0,0,.14-1.19,25.25,25.25,0,0,0-.79-7.12,3.33,3.33,0,0,1-.32-1.19c0-2,0-4.08,0-6.11,0-3.67-.69-6.44-1.47-5.48-.54.66-1.65-1.54-1.72-3.41-.12-3.6-.66-4.37-1.15-4.59-.19-.08-.43.36-.56,0-.59-1.71-1-.77-1.37,1.07l-.47-1.54c-.13.87-.31,1.67-.37,2.63s.07,2.47,0,3.06a53.72,53.72,0,0,0-.46,9c0,2,.13,4,.21,6.17-.76-.24-1.66-2.56-1.8,3.18l-.85-.55c-.15,2-.18,4.19-.43,5.52a20.25,20.25,0,0,0-.2,5.57A4.46,4.46,0,0,0,244,184.5Z"/><path class="cls-1" d="M257.07,204.86a20,20,0,0,0,.12,6.61l0-2.72,0-.06.16,2c.08-1.36.2-2.15.15-2.62C257.4,206.94,257.22,205.93,257.07,204.86Z"/><path class="cls-1" d="M273,225.87c0-1.83,0-3.71,0-5.55,0-2.28-.21-2.57-.63-1.48-.12.33-.32.06-.49.06a20,20,0,0,1,0-2.29,19,19,0,0,1,.64-2.23c-.24-2.33-.46-4.56-.69-6.77a3.42,3.42,0,0,0-.18-.88c-.75-1.46-1.72,2.11-1.71,5.84,0,4-.08,8-.2,12A32,32,0,0,1,273,225.87Z"/><path class="cls-1" d="M264.13,181.16c0,1.57.15,3.56,0,5.23a38,38,0,0,0,.27,6c.21,3,.35,6,.54,9.35a7.45,7.45,0,0,0,.66,1.13c.12.14.3,0,.41-.34.35-1,.66-2.74,1-3,.74-.46.51-3.07.64-4.84a5.2,5.2,0,0,0-.39-3,11.92,11.92,0,0,1-1-2.71,11,11,0,0,1-.11-2.54c.53-2.91.11-5.83.14-8.19-.39.55-.73,1.07-1.08,1.51S264.52,180.71,264.13,181.16Z"/><path class="cls-1" d="M350.4,332.05c-.59-.77-1.09-1.52-1.8-2.31s-2-1.87-2.37-2.41A65.52,65.52,0,0,0,339.5,320c-1.52-1.54-3.2-3-5-4.65.72-.35,3.17.82-1.22-3.74l1-.16c-1.49-1.68-3.16-3.39-4-4.59a24.75,24.75,0,0,0-4.23-4.47,5.24,5.24,0,0,0-1.91-.88c0,.09,0,.18,0,.27-1.26-1.42-2.94-3.11-3.69-4.19a46.18,46.18,0,0,0-8.31-8.67,22.44,22.44,0,0,1-1.69-1.57c-2.85-2.83-5.66-5.71-8.53-8.5-2.49-2.42-5.05-4.7-7.54-7.12-1.39-1.36-2.8-2.77-4.15-4.18a35.8,35.8,0,0,1-4.49,10.27c1.09,1.46,1.72,2.72.66,2.21-.46-.22-1-.54-1.55-.85a31.59,31.59,0,0,1-3.55,4.14l.34.37a3,3,0,0,0,.11,1.23,6.8,6.8,0,0,0,1.16,1.52c2.78,2.44,4.91,5.12,7.45,7.62.62.61,1.29,1.32,1.87,1.79,3,2.49,6,5.53,9,8.23,3.77,3.38,7.53,6.81,11.2,9.82,1.39,1.14,3.26,2.9,3.39,2.11.07-.43.55,0,2.11,1.71.38.41.84.83,1.26,1.24q4.76,4.72,9.5,9.45c.47.47.84,1,1.26,1.52l-.27-.13,9.55,9.17c0-.71,1.11-.06,2.44,1.2a13.49,13.49,0,0,1,2.11-.3c1,0,.18-1.24-2.63-3.82-1.77-1.62-3.54-3.33-5.31-5-1.14-1.07-2.36-2.35-3.39-3.18-3-2.46-6.07-5-9.26-8.09-.69-.66-1.42-1.29-2.12-1.88-1-.89-2.06-1.73-3.38-2.83.84-.27.36-1-1.84-3.18-1.11-1.09-2.26-2.13-3.35-3.23q-5.33-5.37-10.62-10.76s0-.08,0-.13c.19.16.4.31.59.5q6.82,6.58,13.63,13.16c.35.34.6.81,1,1.19,1.06,1.09,2.16,2.15,3.25,3.23,0-.24.27-.33.11-.73-.41-1.07-1-2.28-1.54-3.5,2,1.36,2,1.34,2.76,2.83a7.49,7.49,0,0,0,.84,1,30.82,30.82,0,0,0,6.14,5,4,4,0,0,1,1.16.7c1.61,1.55,3.22,3.14,4.8,4.74,2.84,2.88,5.53,4.52,5.33,3.23-.14-.89,2.37,0,3.89,1.45,2.91,2.71,3.89,2.94,4.41,2.76.2-.07,0-.58.42-.37,1.75.92,1.32-.12.13-1.79Z"/><path class="cls-1" d="M299,294.87a24.39,24.39,0,0,0-5.27-5.06l2.16,2.09V292l-1.7-1.46c1,1.12,1.54,1.81,1.95,2.14C297.09,293.48,298,294.14,299,294.87Z"/><path class="cls-1" d="M312.54,318.25c-1.25-1.21-2.9-2.66-4.13-4a46.4,46.4,0,0,0-4.9-4.48c-2.46-2.14-5-4.44-7.7-6.89a8.62,8.62,0,0,0-1.35-.41c-.2,0-.19.23,0,.55.51,1,1.68,2.59,1.6,3-.16.88,2,2.74,3.34,4.22a6.31,6.31,0,0,0,2.6,2,14.18,14.18,0,0,1,2.82,1.42,13.45,13.45,0,0,1,2.07,1.9c1.9,2.63,4.49,4.61,6.32,6.47-.16-.7-.32-1.35-.42-1.93S312.61,318.88,312.54,318.25Z"/><path class="cls-1" d="M280.21,251.25A22.42,22.42,0,0,0,272,238.54l.33.12a16.61,16.61,0,0,0-1.76-1.51,22.72,22.72,0,0,0-15.12-3.51l-2.06.34c-2.68.52-3.36,1-3,1.16.72.42-2,1.45-3.59,2.74a21.87,21.87,0,0,0-8.59,13.3,19.33,19.33,0,0,0,1.53,12.53c.43.66.76,1.62,1.29,2.36a18.19,18.19,0,0,0,7.93,7.6,12.5,12.5,0,0,1,1.72,1.06,3.46,3.46,0,0,1,.69,1.1,23.41,23.41,0,0,0,2.68.84,7.78,7.78,0,0,1-.93,0,29.56,29.56,0,0,0,12-.46l.21-.49a18.93,18.93,0,0,0,4.16-1.95l-.81.64c.22.26.83.25.43.74A10.13,10.13,0,0,1,266,277c-1.31.54-1.92.61-2.24,1s-2.08.81-3.28,1.14c-3,.58-2,1.11-2.19,1.65-.07.19.11.38.2.64.2,0,1.1.09,2.75.06a25.62,25.62,0,0,1-4.56.48l.28-.33-2-.16a35.46,35.46,0,0,1-6.48-.39c-2.43-.34,2.08,2.45,6.25,2.93a28.11,28.11,0,0,0,15.34-2.31,34.33,34.33,0,0,0,5.7-3.31,28.91,28.91,0,0,1-9.27,5l.05.14a29.52,29.52,0,0,0,3.37-1.16c2.14-1,3.63-1.84,5-2.4a16.32,16.32,0,0,0,5.17-4.15c2.57-2.73,4.8-7.27,6.2-9.57.56-.86.61,0,.89.15a29.93,29.93,0,0,0,1.9-10.52,31.69,31.69,0,0,1,1.71,5.5l.48-2.26a22.87,22.87,0,0,0-.22,5.11c.09.78.36,1.44-.54,4.26a36.35,36.35,0,0,0,2-5.4c-.15,1.91-.58,4.18.19,3.24.67-.74-.08,3-.2,4.3-.05.54.6-.32.65,0a3.32,3.32,0,0,1-.34,2.27c-1.47,3-1.63,4.94-5.55,8.72l-1.76,1.83a36,36,0,0,1-23.14,10.78A42.29,42.29,0,0,1,244.83,292a38.86,38.86,0,0,1-17-11.82,38.06,38.06,0,0,1-8.52-22.43c-.12-1.56,0-3.37,0-4.64A32.7,32.7,0,0,1,222,240.63a32.15,32.15,0,0,1,6.55-9.52,48.32,48.32,0,0,1,8.62-7.07l-.43,0a13.82,13.82,0,0,1,3.08-2.64,28.6,28.6,0,0,1,12-3.77,43.72,43.72,0,0,1,12.29.38l-1.33.66c6.21,1,7.8,2.25,7.91,2.55s-1.31.32-1.66.6a33.62,33.62,0,0,1,11.41,5.77c5.07,3.88,9.24,9.57,10.8,14.89a46.25,46.25,0,0,1,1.82,6,27.56,27.56,0,0,1,.32,5.36,21.83,21.83,0,0,0-.79-3c.15,3.69-.41,5.47-1.1,2.23-.18-.73-.37.13-.56,0-.65-.34-.81-1.85-3-8-1.21-3.29-4.37-6-4.19-4.69.1,1.84-2.53-2.12-7.09-6a27.4,27.4,0,0,0-8.68-5,5.7,5.7,0,0,0-1.95-.32,51,51,0,0,0-11.39-.1,16.41,16.41,0,0,1-1.89.15c-2.37.07-2.44,0-5.47,1.61a24,24,0,0,1,5.22-.19c.57,0,.49.3.71.46a27.24,27.24,0,0,0-5.83,1.89,19.68,19.68,0,0,0-1.9.78,25.46,25.46,0,0,0-12.82,20.63v1s.12-.05.12-.1A25,25,0,0,1,241,237.6a26.47,26.47,0,0,1,4.91-3.65c3.61-1.9,4.89-1.78,4.61-1a24.32,24.32,0,0,1,5.42-1.49,19.26,19.26,0,0,1,3.66-.2,28,28,0,0,1,15.07,5.12,21.62,21.62,0,0,1,4.33,4.44,26.21,26.21,0,0,1,4.34,8.73c1.3,5,.58,7.09-.05,6.1a10.05,10.05,0,0,0-1.79-1.53C281.26,251.93,280.61,250.59,280.21,251.25Zm-12.82,38.16A8.57,8.57,0,0,0,270,289a32.68,32.68,0,0,0,7.81-3.91,38.41,38.41,0,0,0,4-3.25c.77-.68,1.58-1.34,2.29-2.1l.11-.44A35.11,35.11,0,0,1,268.26,289Zm-34.21-28.65a16.38,16.38,0,0,0,3.72,8.82,25,25,0,0,1-1.93-3.45V266a26.94,26.94,0,0,0,1.5,2.53c-.91-1.75-1.26-2.83-1.54-3.44A33,33,0,0,1,233.19,260.76Z"/><path class="cls-1" d="M251.31,264a4.34,4.34,0,0,1-.51-1.39,10.36,10.36,0,0,1-2.67-3.05,1.46,1.46,0,0,0-.37-.45c-.93-.78-1.44,2,.3,4.22a13.37,13.37,0,0,0,7.3,5c1.23.3,1.93.26,2.22-.08a7.54,7.54,0,0,0,1.48-2.27c.05-.13-.34-.33-.65-.4a25.79,25.79,0,0,1-4.7-1.24c-1.07-.62-1.35-.57-1,.11.1.2-.14.29-.23.43A4.89,4.89,0,0,1,251.31,264Z"/><path class="cls-1" d="M251.09,239.06a27.89,27.89,0,0,0-4.7,2.89,12.33,12.33,0,0,0-3.84,5,17.94,17.94,0,0,0-1.91,9.24,6.93,6.93,0,0,0,.72,1.09c.13.13.29,0,.39-.35.24-.94.7-2.55,1.07-2.7.8-.32.88-2.54,1.66-3.89a5.29,5.29,0,0,0,.85-2.43,5.66,5.66,0,0,1,.69-2.53,6.23,6.23,0,0,1,1.62-1.75c2.39-1.35,4.66-2.78,6.84-3.28-.58-.23-1.18-.49-1.69-.65Z"/><path class="cls-1" d="M269.3,260.57a4.27,4.27,0,0,0,.25-1.27c-.15-2-1.37-1.19-2.44.4-1.27,1.65-2.59,3.45-4.51,4.39-.51.2-1,.47-1.54.64a1.62,1.62,0,0,1-.12.24,10.24,10.24,0,0,0,5.92-1.66,1.51,1.51,0,0,0,.18-.37,3.7,3.7,0,0,1,.1.6A12.25,12.25,0,0,0,269.3,260.57Z"/></svg>