<svg width="106" height="78" viewBox="0 0 106 78" fill="none" xmlns="http://www.w3.org/2000/svg">
<path d="M105.5 38.6719C105.5 38.4141 105.5 38.1211 105.488 37.7813C105.477 36.832 105.453 35.7656 105.43 34.6289C105.336 31.3594 105.172 28.1016 104.914 25.0312C104.562 20.8008 104.047 17.2734 103.344 14.625C102.602 11.8611 101.147 9.34041 99.1258 7.3148C97.1043 5.28919 94.5866 3.82964 91.8242 3.08203C88.5078 2.19141 82.0156 1.64062 72.875 1.30078C68.5273 1.13672 63.875 1.03125 59.2227 0.972656C57.5937 0.949218 56.082 0.9375 54.7227 0.925781H51.2773C49.918 0.9375 48.4062 0.949218 46.7773 0.972656C42.125 1.03125 37.4727 1.13672 33.125 1.30078C23.9844 1.65234 17.4805 2.20312 14.1758 3.08203C11.4125 3.82781 8.89378 5.28674 6.872 7.31264C4.85022 9.33853 3.39641 11.8602 2.65625 14.625C1.94141 17.2734 1.4375 20.8008 1.08594 25.0312C0.828125 28.1016 0.664062 31.3594 0.570312 34.6289C0.535156 35.7656 0.523437 36.832 0.511719 37.7813C0.511719 38.1211 0.5 38.4141 0.5 38.6719V39.3281C0.5 39.5859 0.5 39.8789 0.511719 40.2188C0.523437 41.168 0.546875 42.2344 0.570312 43.3711C0.664062 46.6406 0.828125 49.8984 1.08594 52.9688C1.4375 57.1992 1.95313 60.7266 2.65625 63.375C4.15625 68.9883 8.5625 73.418 14.1758 74.918C17.4805 75.8086 23.9844 76.3594 33.125 76.6992C37.4727 76.8633 42.125 76.9688 46.7773 77.0274C48.4062 77.0508 49.918 77.0625 51.2773 77.0742H54.7227C56.082 77.0625 57.5937 77.0508 59.2227 77.0274C63.875 76.9688 68.5273 76.8633 72.875 76.6992C82.0156 76.3477 88.5195 75.7969 91.8242 74.918C97.4375 73.418 101.844 69 103.344 63.375C104.059 60.7266 104.562 57.1992 104.914 52.9688C105.172 49.8984 105.336 46.6406 105.43 43.3711C105.465 42.2344 105.477 41.168 105.488 40.2188C105.488 39.8789 105.5 39.5859 105.5 39.3281V38.6719ZM97.0625 39.2813C97.0625 39.5274 97.0625 39.7969 97.0508 40.1133C97.0391 41.0273 97.0156 42.0352 96.9922 43.125C96.9102 46.2422 96.7461 49.3594 96.5 52.2539C96.1836 56.0273 95.7383 59.1211 95.1875 61.1953C94.4609 63.9024 92.3281 66.0469 89.6328 66.7617C87.1719 67.418 80.9727 67.9453 72.5469 68.2617C68.2812 68.4258 63.6875 68.5313 59.1055 68.5899C57.5 68.6133 56.0117 68.625 54.6758 68.625H51.3242L46.8945 68.5899C42.3125 68.5313 37.7305 68.4258 33.4531 68.2617C25.0273 67.9336 18.8164 67.418 16.3672 66.7617C13.6719 66.0352 11.5391 63.9024 10.8125 61.1953C10.2617 59.1211 9.81641 56.0273 9.5 52.2539C9.25391 49.3594 9.10156 46.2422 9.00781 43.125C8.97266 42.0352 8.96094 41.0156 8.94922 40.1133C8.94922 39.7969 8.9375 39.5156 8.9375 39.2813V38.7188C8.9375 38.4727 8.9375 38.2031 8.94922 37.8867C8.96094 36.9727 8.98438 35.9648 9.00781 34.875C9.08984 31.7578 9.25391 28.6406 9.5 25.7461C9.81641 21.9727 10.2617 18.8789 10.8125 16.8047C11.5391 14.0977 13.6719 11.9531 16.3672 11.2383C18.8281 10.582 25.0273 10.0547 33.4531 9.73828C37.7188 9.57422 42.3125 9.46875 46.8945 9.41016C48.5 9.38672 49.9883 9.375 51.3242 9.375H54.6758L59.1055 9.41016C63.6875 9.46875 68.2695 9.57422 72.5469 9.73828C80.9727 10.0664 87.1836 10.582 89.6328 11.2383C92.3281 11.9648 94.4609 14.0977 95.1875 16.8047C95.7383 18.8789 96.1836 21.9727 96.5 25.7461C96.7461 28.6406 96.8984 31.7578 96.9922 34.875C97.0273 35.9648 97.0391 36.9844 97.0508 37.8867C97.0508 38.2031 97.0625 38.4844 97.0625 38.7188V39.2813ZM42.5703 54.7031L69.7578 38.8828L42.5703 23.2969V54.7031Z" fill="white"/>
</svg>
